<?xml version="1.0" encoding="utf-8"?>
<!-- Generator: Adobe Illustrator 16.0.0, SVG Export Plug-In . SVG Version: 6.00 Build 0)  -->
<!DOCTYPE svg PUBLIC "-//W3C//DTD SVG 1.1//EN" "http://www.w3.org/Graphics/SVG/1.1/DTD/svg11.dtd">
<svg version="1.1" id="Layer_1" xmlns="http://www.w3.org/2000/svg" xmlns:xlink="http://www.w3.org/1999/xlink" x="0px" y="0px"
	 width="169px" height="150px" viewBox="0 0 169 150" enable-background="new 0 0 169 150" xml:space="preserve">
<path fill="#EB2D2E" d="M75,2.724c-40.009,0-72.443,32.435-72.443,72.443c0,40.008,32.434,72.442,72.443,72.442
	c40.009,0,72.442-32.435,72.442-72.442C147.442,35.158,115.009,2.724,75,2.724z M75,138.595c-35.03,0-63.429-28.398-63.429-63.428
	c0-35.03,28.399-63.429,63.429-63.429s63.429,28.399,63.429,63.429C138.429,110.196,110.03,138.595,75,138.595z"/>
<g>
	<circle fill="#EB2D2E" cx="74.999" cy="75.167" r="23.405"/>
	<g>
		<path fill="#1E4E9C" d="M44.099,75.167c0-15.764,11.804-28.768,27.053-30.661V25.953c-25.463,1.963-45.514,23.247-45.514,49.214
			c0,25.967,20.051,47.251,45.514,49.214v-18.553C55.903,103.934,44.099,90.929,44.099,75.167z"/>
		<path fill="#1E4E9C" d="M124.361,75.167c0-25.53-19.381-46.533-44.233-49.099v18.625c14.623,2.443,25.771,15.155,25.771,30.474
			c0,15.316-11.148,28.029-25.771,30.472v18.626C104.979,121.699,124.361,100.698,124.361,75.167z"/>
	</g>
</g>
<path fill="#EB2D2E" d="M141.878,111.189c-3.27,6.128-7.388,11.723-12.202,16.638l26.136,19.83l11.45-17.208L141.878,111.189z"/>
</svg>
